<svg width="632" height="612" viewBox="0 0 632 612" fill="none" xmlns="http://www.w3.org/2000/svg">
<path id="scribble-path" d="M317.658 2.12267C338.449 2.12267 359.256 1.84666 380.045 2.12267C411.034 2.53411 433.808 28.8149 454.111 50.11C474.352 71.3408 493.868 91.774 512.02 115.044C534.513 143.879 549.581 179.254 556.651 215.801C564.988 258.9 567.071 300.903 563.849 344.83C561.398 378.252 549.811 410.738 541.374 442.734C533.135 473.978 517.169 502.598 500.582 529.564C484.697 555.39 459.67 574.901 433.155 587.703C420.867 593.636 407.361 597.695 393.963 599.783C378.756 602.154 364.918 608.953 349.331 609.18C317.473 609.644 284.015 611.884 252.55 606.159C230.024 602.061 207.585 596.862 186.483 587.535C166.644 578.766 144.061 573.885 126.175 560.857C113.951 551.953 99.2582 547.542 88.4225 536.36C75.5115 523.036 63.4727 508.827 52.6695 493.574C41.4957 477.797 35.544 457.072 27.6344 439.294C20.2022 422.59 14.1613 404.797 8.75807 387.28C4.53485 373.588 0.931616 361.008 -1.15998 346.591C-3.64873 329.437 -1.95983 311.068 -1.95983 293.738C-1.95983 267.225 3.36568 241.519 12.4374 216.891C21.4701 192.37 33.5441 174.289 49.3101 153.719C67.6503 129.791 89.6666 112.748 113.218 94.9933C132.214 80.6726 155.104 74.1084 174.166 60.429C180.016 56.2301 187.493 54.8759 193.842 51.6201C201.964 47.4553 209.835 44.1183 218.237 40.63C232.974 34.5115 247.752 28.5212 262.788 23.264C279.553 17.4027 298.116 12.6933 315.898 12.6933C333.538 12.6933 349.417 13.1733 366.608 17.5592C381.461 21.3486 395.901 30.1623 408.44 39.2038C439.128 61.3334 458.176 96.3937 480.026 127.125C510.917 170.571 536.866 217.118 549.452 270.583C557.391 304.308 558.09 336.267 558.09 370.921C558.09 398.399 555.384 423.277 548.812 449.865C536.291 500.523 508.253 568.347 455.551 585.018C424.837 594.734 392.772 598.801 360.849 600.455C320.484 602.545 278.851 606.602 238.553 601.629C216.101 598.859 195.544 587.457 174.566 579.649C150.194 570.578 129.473 554.85 110.418 536.863C101.741 528.672 92.1597 522.158 83.7034 513.289C71.1633 500.136 61.6342 486.497 52.8294 470.335C45.73 457.304 39.3515 444.096 34.0331 430.15C30.1429 419.949 25.9745 406.123 24.275 395.25C20.2982 369.805 13.8771 344.269 13.8771 318.403C13.8771 300.338 13.8771 282.273 13.8771 264.208C13.8771 212.726 37.5253 156.379 70.186 118.316C77.5642 109.717 85.8864 105.567 94.4213 98.8525C100.399 94.1503 107.951 93.8963 114.497 90.4631C121.984 86.5369 130.432 85.5535 137.773 81.3186C145.772 76.7042 154.772 72.9157 163.528 70.1607C171.43 67.674 179.761 63.494 187.523 60.1773C198.827 55.3467 210.02 52.2028 221.996 49.6906C244.169 45.0393 265.139 39.1391 287.104 32.9957C301.039 29.0979 317.32 29.3043 331.735 29.3043C345.217 29.3043 359.176 29.6415 372.287 33.0796C409.948 42.9552 441.379 71.1427 466.268 101.789C477.51 115.63 492.962 126.611 505.141 139.877C510.086 145.263 515.286 150.149 519.538 156.152C525.371 164.388 528.418 173.443 533.295 182.159C538.091 190.728 542.506 201.17 544.813 210.851C548.468 226.186 555.291 240.413 559.53 255.483C566.452 280.085 572.488 303.831 572.488 329.813C572.488 359.561 571.349 388.713 569.528 418.321C568.607 433.297 563.557 447.402 560.33 461.862C556.598 478.588 552.858 497.023 542.254 510.688C509.708 552.627 460.234 588.809 408.52 595.589C374.628 600.032 340.419 598.609 306.22 598.609C283.329 598.609 260.876 598.304 238.073 596.344C222.606 595.014 204.854 594.341 190.163 588.793C169.577 581.02 150.298 570.019 131.374 558.592C113.351 547.708 96.5088 534.022 78.6644 523.104C71.3372 518.621 64.5711 510.001 59.3082 503.138C51.2335 492.608 41.3356 483.154 34.3531 471.761C17.1707 443.727 -2.58101 417.545 -14.3574 386.189C-25.5577 356.368 -24.9953 327.474 -24.9953 295.836C-24.9953 268.357 -19.1371 244.414 -12.6777 218.066C-1.41158 172.111 39.4897 135.976 77.5446 113.869C89.0389 107.192 101.465 102.858 113.218 96.9229C122.596 92.1866 134.316 85.7667 144.571 84.0032C167.51 80.059 190.887 71.5915 214.078 70.1607C238.795 68.6357 263.423 68.5667 288.223 68.5667C301.942 68.5667 316.618 66.8943 330.215 68.7345C344.717 70.6972 358.651 74.0856 373.007 76.7883C394.93 80.9157 413.655 88.6518 433.635 98.7686C458.457 111.337 483.61 122.662 503.381 143.4C524.691 165.752 540.676 189.991 554.891 217.73C570.15 247.506 579.616 280.971 590.244 312.698C599.631 340.721 598.851 374.895 592.644 403.472C589.512 417.89 584.42 433.108 579.366 446.929C574.166 461.149 567.839 477.06 558.89 489.127C545.815 506.76 536.96 524.299 516.899 534.43C488.826 548.607 464.235 565.695 433.635 573.609C405.896 580.783 377.494 585.479 349.331 591.059C322.58 596.358 295.287 601.115 268.147 603.223C242.291 605.232 213.987 607.332 188.163 603.055C173.728 600.665 159.438 596.102 144.971 594.079C135.769 592.792 128.727 587.112 120.336 583.34C96.1107 572.45 76.7478 548.506 60.028 528.39C47.6089 513.448 37.7673 492.547 30.9937 474.278C21.1995 447.862 11.3523 421.246 5.23876 393.572C-7.70731 334.968 -3.02411 274.297 16.7565 217.982C33.1072 171.432 44.3964 120.227 92.2617 98.7686C145.214 75.0296 200.809 68.5667 257.829 68.5667C303.04 68.5667 348.456 67.0566 393.803 67.0566C408.182 67.0566 422.408 66.1234 436.434 69.3218C444.067 71.0621 450.834 74.4403 458.19 76.7883C468.624 80.1191 479.766 82.1129 489.464 87.8623C513.09 101.869 536.189 114.633 556.651 133.836C585.364 160.783 614.01 198.196 622.718 238.536C640.682 321.754 626.138 419.251 570.968 483.926C545.401 513.898 512.359 539.587 476.027 553.306C457.809 560.185 441.805 565.952 422.437 568.491C401.494 571.237 380.514 574.504 359.569 577.468C340.464 580.171 320.528 581.959 301.821 586.528C284.67 590.717 267.625 589.548 249.991 589.548C217.017 589.548 184.254 588.849 154.01 573.441C135.493 564.007 121.495 539.593 110.338 521.93C103.406 510.955 96.7747 499.014 90.662 487.533C85.4574 477.758 79.1996 469.053 73.7853 459.513C67.4764 448.396 64.1402 435.119 60.268 422.935C50.5117 392.236 45.5509 360.706 45.5509 328.303C45.5509 286.078 44.9386 242.5 52.7495 200.951C55.9527 183.912 61.48 164.673 69.3862 149.273C78.157 132.188 87.9821 120.707 100.9 107.158C113.848 93.5767 129.95 84.2385 142.732 70.8319C148.211 65.0845 155.62 63.1661 162.168 58.7511C165.974 56.1846 169.903 52.8481 174.326 51.6201C200.884 44.2462 226.346 37.7957 253.67 33.8346C275.118 30.7254 297.477 32.1145 319.097 32.3245C340.825 32.5355 363.45 35.561 384.764 39.9589C416.689 46.546 444.756 62.7588 473.147 79.1374C508.372 99.4581 540.603 120.665 562.73 156.991C602.773 222.731 611.814 308.881 592.324 383.84C587.483 402.457 583.469 422.516 575.687 440.049C569.022 455.066 561.329 469.165 554.091 483.842C545.708 500.842 532.409 514.638 519.538 528.138C509.425 538.745 498.855 549.989 486.025 556.998C447.827 577.865 405.289 581.473 363.729 589.465C337.907 594.43 311.108 597.099 284.864 597.099C248.354 597.099 210.529 598.142 174.326 592.904C149.29 589.282 123.092 581.896 106.499 559.85C84.3474 530.42 63.8275 501.641 48.3503 467.483C29.3682 425.589 5.10815 377.652 2.43931 330.064C0.531909 296.054 11.6589 261.898 23.3952 230.65C34.5316 200.999 47.3296 169.376 66.8267 144.742C92.6312 112.14 125.554 89.3226 165.367 79.1374C207.519 68.354 247.664 48.09 290.863 40.7139C304.374 38.4069 317.164 34.6496 330.935 33.0796C349.871 30.9207 369.501 32.3245 388.524 32.3245C420.542 32.3245 452.795 33.8346 484.665 33.8346" stroke="#3E5353" stroke-width="3" stroke-linecap="round"/>
</svg>
