<svg width="25" height="25" viewBox="0 0 25 25" fill="none" xmlns="http://www.w3.org/2000/svg">
    <path d="M15.4347 12.4964L24.3843 3.56758C24.7763 3.17566 24.9964 2.6441 24.9964 2.08984C24.9964 1.53558 24.7763 1.00402 24.3843 0.6121C23.9924 0.220179 23.4609 0 22.9066 0C22.3524 0 21.8208 0.220179 21.4289 0.6121L12.5 9.56178L3.57113 0.6121C3.17921 0.220179 2.64765 -4.12955e-09 2.09339 0C1.53913 4.12956e-09 1.00757 0.220179 0.615651 0.6121C0.223731 1.00402 0.00355199 1.53558 0.00355198 2.08984C0.00355198 2.6441 0.223731 3.17566 0.615651 3.56758L9.56534 12.4964L0.615651 21.4253C0.420572 21.6188 0.265735 21.849 0.160069 22.1026C0.0544026 22.3563 0 22.6283 0 22.9031C0 23.1778 0.0544026 23.4499 0.160069 23.7035C0.265735 23.9571 0.420572 24.1873 0.615651 24.3808C0.809137 24.5759 1.03933 24.7307 1.29296 24.8364C1.54659 24.942 1.81863 24.9964 2.09339 24.9964C2.36815 24.9964 2.64019 24.942 2.89382 24.8364C3.14745 24.7307 3.37764 24.5759 3.57113 24.3808L12.5 15.4311L21.4289 24.3808C21.6224 24.5759 21.8526 24.7307 22.1062 24.8364C22.3598 24.942 22.6319 24.9964 22.9066 24.9964C23.1814 24.9964 23.4534 24.942 23.707 24.8364C23.9607 24.7307 24.1909 24.5759 24.3843 24.3808C24.5794 24.1873 24.7343 23.9571 24.8399 23.7035C24.9456 23.4499 25 23.1778 25 22.9031C25 22.6283 24.9456 22.3563 24.8399 22.1026C24.7343 21.849 24.5794 21.6188 24.3843 21.4253L15.4347 12.4964Z" fill="white"/>
</svg>