<svg width="35" height="36" viewBox="0 0 35 36" fill="none" xmlns="http://www.w3.org/2000/svg">
    <path d="M35 7.1023V28.9773C35 30.2187 34.0539 31.1648 32.8125 31.1648H30.625V11.3121L17.5 20.7403L4.375 11.3121V31.1648H2.1875C0.946094 31.1648 0 30.2187 0 28.9773V7.1023C0 6.48105 0.234063 5.93417 0.626719 5.54698C0.83122 5.34237 1.07477 5.18097 1.3429 5.07236C1.61103 4.96376 1.89825 4.91018 2.1875 4.9148H2.91703L17.5 15.4881L32.083 4.9148H32.8125C33.4338 4.9148 33.9806 5.14886 34.3733 5.54698C34.7659 5.93417 35 6.48105 35 7.1023Z" fill="white"/>
    </svg>
    