<svg width="35" height="35" viewBox="0 0 35 35" fill="none" xmlns="http://www.w3.org/2000/svg">
    <path fill-rule="evenodd" clip-rule="evenodd" d="M10.8865 1.55458C12.5971 1.47583 13.1425 1.45833 17.5 1.45833C21.8575 1.45833 22.403 1.47729 24.1121 1.55458C25.8213 1.63187 26.988 1.90458 28.0088 2.29979C29.0777 2.70375 30.0475 3.33521 30.8496 4.15187C31.6663 4.9525 32.2963 5.92083 32.6988 6.99125C33.0955 8.01208 33.3667 9.17875 33.4455 10.885C33.5242 12.5985 33.5417 13.144 33.5417 17.5C33.5417 21.8575 33.5227 22.4029 33.4455 24.1135C33.3682 25.8198 33.0955 26.9865 32.6988 28.0073C32.2963 29.0778 31.6652 30.0478 30.8496 30.8496C30.0475 31.6662 29.0777 32.2962 28.0088 32.6987C26.988 33.0954 25.8213 33.3667 24.115 33.4454C22.403 33.5242 21.8575 33.5417 17.5 33.5417C13.1425 33.5417 12.5971 33.5227 10.8865 33.4454C9.18025 33.3681 8.01358 33.0954 6.99275 32.6987C5.92222 32.2962 4.95228 31.6652 4.15046 30.8496C3.33434 30.0485 2.70279 29.079 2.29983 28.0087C1.90462 26.9879 1.63337 25.8212 1.55462 24.115C1.47587 22.4015 1.45837 21.856 1.45837 17.5C1.45837 13.1425 1.47733 12.5971 1.55462 10.8879C1.63192 9.17875 1.90462 8.01208 2.29983 6.99125C2.70339 5.92095 3.33542 4.9515 4.15192 4.15042C4.9526 3.33448 5.92156 2.70294 6.99129 2.29979C8.01212 1.90458 9.17879 1.63333 10.885 1.55458H10.8865ZM23.9823 4.44208C22.2907 4.36479 21.7832 4.34875 17.5 4.34875C13.2169 4.34875 12.7094 4.36479 11.0177 4.44208C9.45296 4.51354 8.60421 4.77458 8.03837 4.99479C7.29025 5.28646 6.75504 5.63208 6.19358 6.19354C5.66136 6.71132 5.25176 7.34166 4.99483 8.03833C4.77462 8.60417 4.51358 9.45291 4.44212 11.0177C4.36483 12.7094 4.34879 13.2169 4.34879 17.5C4.34879 21.7831 4.36483 22.2906 4.44212 23.9823C4.51358 25.5471 4.77462 26.3958 4.99483 26.9617C5.2515 27.6573 5.66129 28.2887 6.19358 28.8065C6.71129 29.3387 7.34275 29.7485 8.03837 30.0052C8.60421 30.2254 9.45296 30.4865 11.0177 30.5579C12.7094 30.6352 13.2155 30.6512 17.5 30.6512C21.7846 30.6512 22.2907 30.6352 23.9823 30.5579C25.5471 30.4865 26.3959 30.2254 26.9617 30.0052C27.7098 29.7135 28.245 29.3679 28.8065 28.8065C29.3388 28.2887 29.7486 27.6573 30.0052 26.9617C30.2255 26.3958 30.4865 25.5471 30.558 23.9823C30.6352 22.2906 30.6513 21.7831 30.6513 17.5C30.6513 13.2169 30.6352 12.7094 30.558 11.0177C30.4865 9.45291 30.2255 8.60417 30.0052 8.03833C29.7136 7.29021 29.368 6.755 28.8065 6.19354C28.2887 5.66135 27.6584 5.25176 26.9617 4.99479C26.3959 4.77458 25.5471 4.51354 23.9823 4.44208V4.44208ZM15.4511 22.4452C16.5954 22.9215 17.8696 22.9858 19.056 22.6271C20.2424 22.2684 21.2675 21.5088 21.9561 20.4783C22.6448 19.4477 22.9543 18.21 22.8318 16.9766C22.7093 15.7432 22.1623 14.5906 21.2844 13.7156C20.7248 13.1563 20.0481 12.7281 19.303 12.4617C18.558 12.1953 17.7632 12.0974 16.9758 12.1751C16.1884 12.2527 15.428 12.504 14.7493 12.9108C14.0707 13.3176 13.4907 13.8698 13.0511 14.5277C12.6115 15.1856 12.3232 15.9327 12.207 16.7154C12.0909 17.498 12.1496 18.2967 12.3792 19.0539C12.6087 19.8111 13.0032 20.508 13.5344 21.0944C14.0656 21.6808 14.7202 22.1421 15.4511 22.4452ZM11.6696 11.6696C12.4353 10.9039 13.3443 10.2966 14.3446 9.88219C15.345 9.46782 16.4172 9.25454 17.5 9.25454C18.5828 9.25454 19.6551 9.46782 20.6554 9.88219C21.6558 10.2966 22.5648 10.9039 23.3305 11.6696C24.0961 12.4352 24.7035 13.3442 25.1178 14.3446C25.5322 15.345 25.7455 16.4172 25.7455 17.5C25.7455 18.5828 25.5322 19.655 25.1178 20.6554C24.7035 21.6558 24.0961 22.5648 23.3305 23.3304C21.7841 24.8767 19.6869 25.7455 17.5 25.7455C15.3132 25.7455 13.2159 24.8767 11.6696 23.3304C10.1233 21.7841 9.25459 19.6868 9.25459 17.5C9.25459 15.3132 10.1233 13.2159 11.6696 11.6696V11.6696ZM27.5742 10.4825C27.7639 10.3035 27.9158 10.0883 28.0209 9.84954C28.126 9.6108 28.1821 9.35341 28.1859 9.0926C28.1897 8.8318 28.1411 8.57288 28.043 8.33118C27.945 8.08948 27.7994 7.86991 27.615 7.68547C27.4305 7.50103 27.211 7.35548 26.9693 7.25742C26.7276 7.15936 26.4687 7.1108 26.2078 7.1146C25.947 7.1184 25.6897 7.17449 25.4509 7.27956C25.2122 7.38462 24.9969 7.53651 24.818 7.72625C24.4699 8.09525 24.2793 8.58538 24.2867 9.0926C24.2941 9.59983 24.4989 10.0842 24.8576 10.4429C25.2163 10.8016 25.7006 11.0064 26.2078 11.0138C26.7151 11.0212 27.2052 10.8306 27.5742 10.4825V10.4825Z" fill="white"/>
</svg>
