<svg width="35" height="36" viewBox="0 0 35 36" fill="none" xmlns="http://www.w3.org/2000/svg">
    <path d="M34.4794 7.37972C33.2617 7.91931 31.9535 8.28389 30.5783 8.44868C31.9973 7.59963 33.0589 6.26332 33.565 4.6891C32.2319 5.48096 30.7728 6.03834 29.2512 6.33701C28.228 5.24453 26.8728 4.52041 25.3959 4.27708C23.919 4.03376 22.4031 4.28484 21.0835 4.99134C19.7639 5.69785 18.7145 6.82025 18.0981 8.18429C17.4818 9.54833 17.3331 11.0777 17.675 12.5349C14.9737 12.3993 12.3311 11.6972 9.91874 10.4742C7.50636 9.25114 5.3781 7.53454 3.67208 5.43576C3.08875 6.44201 2.75333 7.60868 2.75333 8.85118C2.75268 9.96972 3.02813 11.0711 3.55524 12.0577C4.08234 13.0442 4.84482 13.8854 5.775 14.5066C4.69623 14.4723 3.64127 14.1808 2.69791 13.6564V13.7439C2.6978 15.3127 3.24046 16.8332 4.23381 18.0474C5.22715 19.2617 6.61 20.0948 8.1477 20.4056C7.14697 20.6764 6.09778 20.7163 5.07937 20.5222C5.51322 21.8721 6.35832 23.0525 7.49637 23.8982C8.63441 24.7438 10.0084 25.2125 11.426 25.2385C9.01954 27.1276 6.04754 28.1524 2.98812 28.1478C2.44618 28.148 1.90469 28.1163 1.36646 28.0531C4.47194 30.0498 8.08695 31.1095 11.779 31.1053C24.2769 31.1053 31.1092 20.7541 31.1092 11.7766C31.1092 11.4849 31.1019 11.1903 31.0887 10.8987C32.4177 9.9376 33.5649 8.74749 34.4765 7.3841L34.4794 7.37972V7.37972Z" fill="white"/>
    </svg>
    