<svg width="35" height="36" viewBox="0 0 35 36" fill="none" xmlns="http://www.w3.org/2000/svg">
    <g clip-path="url(#clip0_31_92)">
    <path d="M34.2709 9.84924C34.0727 9.14229 33.6867 8.50224 33.1538 7.99716C32.6059 7.47654 31.9343 7.10413 31.2025 6.91507C28.4638 6.1932 17.4913 6.1932 17.4913 6.1932C12.917 6.14115 8.3438 6.37006 3.79755 6.87861C3.06574 7.08163 2.39545 7.46237 1.8463 7.98695C1.30671 8.50611 0.915879 9.14632 0.711712 9.84778C0.221265 12.4899 -0.0170286 15.1727 4.55667e-05 17.8599C-0.0174544 20.5447 0.220254 23.2265 0.711712 25.8719C0.911504 26.5705 1.30088 27.2078 1.84192 27.7226C2.38296 28.2374 3.05671 28.6092 3.79755 28.8061C6.57275 29.5265 17.4913 29.5265 17.4913 29.5265C22.0714 29.5786 26.6504 29.3497 31.2025 28.8411C31.9343 28.6521 32.6059 28.2797 33.1538 27.759C33.6934 27.2442 34.0769 26.604 34.2694 25.9069C34.7727 23.2658 35.0174 20.582 35 17.8934C35.0379 15.1935 34.7935 12.4969 34.2709 9.84778V9.84924ZM14.003 22.8532V12.868L23.1321 17.8613L14.003 22.8532Z" fill="white"/>
    </g>
    <defs>
    <clipPath id="clip0_31_92">
    <rect width="35" height="35" fill="white" transform="translate(0 0.359863)"/>
    </clipPath>
    </defs>
    </svg>
    